<?xml version="1.0" encoding="UTF-8" standalone="no"?>
<svg
   viewBox="0 0 601.00134 601.00159"
   height="601.00159"
   width="601.00134"
   xml:space="preserve"
   version="1.1"
   id="svg4373"
   sodipodi:docname="parkhaus-logo.svg"
   inkscape:version="1.4.3 (0d15f75042, 2025-12-25)"
   xmlns:inkscape="http://www.inkscape.org/namespaces/inkscape"
   xmlns:sodipodi="http://sodipodi.sourceforge.net/DTD/sodipodi-0.dtd"
   xmlns="http://www.w3.org/2000/svg"
   xmlns:svg="http://www.w3.org/2000/svg"
   xmlns:rdf="http://www.w3.org/1999/02/22-rdf-syntax-ns#"
   xmlns:cc="http://creativecommons.org/ns#"
   xmlns:dc="http://purl.org/dc/elements/1.1/"><sodipodi:namedview
     id="namedview1"
     pagecolor="#ffffff"
     bordercolor="#111111"
     borderopacity="1"
     inkscape:showpageshadow="0"
     inkscape:pageopacity="0"
     inkscape:pagecheckerboard="1"
     inkscape:deskcolor="#d1d1d1"
     inkscape:zoom="0.64768928"
     inkscape:cx="318.05374"
     inkscape:cy="101.12874"
     inkscape:window-width="2560"
     inkscape:window-height="1375"
     inkscape:window-x="0"
     inkscape:window-y="65"
     inkscape:window-maximized="1"
     inkscape:current-layer="svg4373" /><metadata
     id="metadata4379"><rdf:RDF><cc:Work
         rdf:about=""><dc:format>image/svg+xml</dc:format><dc:type
           rdf:resource="http://purl.org/dc/dcmitype/StillImage" /></cc:Work></rdf:RDF></metadata><defs
     id="defs4377" /><path
     id="path4385"
     style="fill:#ffffff;fill-opacity:1;fill-rule:nonzero;stroke:none;stroke-width:1.25"
     d="M 36.49875,0.49784 C 0.42,0.47909 0.4975,36.50409 0.4975,36.50409 v 527.9975 c 0,0 -0.0775,36.03125 36.00125,35.99625 H 564.5025 c 36.3125,0.0388 35.995,-35.99625 35.995,-35.99625 V 36.50409 c 0,0 0.29875,-36.12375 -35.995,-36.00625 z" /><path
     id="path4387"
     style="fill:#154889;fill-opacity:1;fill-rule:nonzero;stroke:none;stroke-width:1.25"
     d="m 36.498794,12.50034 c -13.25125,0 -23.99875,10.74625 -23.99875,23.99875 v 528.0025 c 0,13.2625 10.7475,24 23.99875,24 H 564.50255 c 13.25125,0 23.99875,-10.7375 23.99875,-24 V 36.49909 c 0,-13.2525 -10.7475,-23.99875 -23.99875,-23.99875 z" /><path
     id="path4389"
     style="fill:#000000;fill-opacity:1;fill-rule:nonzero;stroke:none;stroke-width:1.25"
     d="M 36.49875,3.4e-4 C 18.29125,-0.00966 9.0725,9.14534 4.52125,18.27159 -0.02875,27.39784 0,36.50909 0,36.50909 v 527.9925 c 0,0 -0.025,9.11125 4.52125,18.2325 4.55125,9.12625 13.77,18.28125 31.9775,18.2675 H 564.5025 c 18.32,0.0188 27.54375,-9.14125 32.065,-18.2675 4.51625,-9.12125 4.43375,-18.2275 4.43375,-18.2325 V 36.50409 c 0,-0.005 0.0775,-9.13625 -4.44375,-18.26625 -4.52125,-9.13625 -13.745,-18.29625 -32.055,-18.2375 z m 0,0.4975 H 564.5025 c 36.29375,-0.1175 35.995,36.00625 35.995,36.00625 v 527.9975 c 0,0 0.3175,36.035 -35.995,35.99625 H 36.49875 C 0.42,600.53284 0.4975,564.50159 0.4975,564.50159 V 36.50409 c 0,0 -0.0775,-36.025 36.00125,-36.00625 z" /><path
     id="path4393"
     style="fill:#ffffff;fill-opacity:1;fill-rule:nonzero;stroke:none;stroke-width:1.25"
     d="m 550.5025,175.50284 v 71.42625 l -250,-107.14375 -250.005,107.14375 V 175.50284 L 300.5025,68.35909 Z" /><path
     style="font-size:393.743px;font-family:'Alte DIN 1451 Mittelschrift';-inkscape-font-specification:'Alte DIN 1451 Mittelschrift, Normal';font-variation-settings:'opsz' 32;text-align:end;text-anchor:end;fill:#ffffff;fill-rule:evenodd;stroke-width:28.9595;stroke-dashoffset:0.6538"
     d="m 75.928319,901.00583 28.069571,-31.91472 q 15.7651,12.68898 36.33663,20.37928 20.57154,7.69029 43.06565,7.69029 25.95474,0 40.75855,-10.76641 14.80382,-10.76641 14.80382,-28.26183 0,-33.06826 -36.5289,-37.87469 -9.61286,-1.15355 -17.87993,-2.30709 -8.26706,-1.15354 -19.22573,-2.6916 -36.33664,-4.99869 -55.37011,-26.53151 -19.033479,-21.72508 -19.033479,-52.294 0,-35.75986 23.839909,-58.83074 24.03217,-23.07088 67.48232,-23.07088 25.95474,0 48.83336,8.26706 22.87863,8.26707 42.10436,20.95605 l -23.64765,34.99084 q -15.38059,-9.61287 -33.06826,-15.57285 -17.68768,-5.95997 -36.14438,-5.95997 -19.61025,0 -33.26052,9.99738 -13.65027,9.99738 -13.65027,29.99214 0,11.91996 9.22835,22.30185 9.22835,10.3819 30.56892,13.65027 5.57546,0.96129 13.45801,2.11483 7.88255,0.96129 18.07219,2.11483 39.2205,4.80644 57.86946,28.45409 18.84121,23.64765 18.84121,52.29399 0,38.64372 -26.72376,59.98429 -26.72377,21.34056 -71.71199,21.34056 -63.25266,0 -107.087331,-38.45146 z M 366.04463,810.45262 v -35.37534 h 13.84252 q 19.99477,0 31.53021,-11.15093 11.72769,-11.34318 11.72769,-28.64634 0,-17.1109 -12.11221,-28.8386 -12.11221,-11.7277 -28.8386,-11.7277 -12.68898,0 -24.03216,8.45932 -11.34319,8.45933 -14.61156,25.37797 h -40.18178 q 2.30708,-29.60763 24.80119,-51.71722 22.49411,-22.30185 52.48625,-22.30185 37.49018,0 59.98429,24.80119 22.68637,24.60894 22.68637,55.17786 0,16.14961 -6.3445,31.5302 -6.34449,15.18833 -23.64765,26.33925 17.68768,11.34319 25.37797,27.87732 7.69029,16.53413 7.69029,33.45277 0,39.2205 -24.60894,62.48364 -24.60893,23.26313 -60.3688,23.26313 -28.45408,0 -51.3327,-18.26444 -22.68637,-18.45671 -28.26183,-53.6398 h 40.18178 q 5.57546,14.4193 14.99607,23.26314 9.42061,8.65158 26.72377,8.65158 16.72639,0 29.60763,-11.7277 12.88124,-11.91995 12.88124,-32.68375 0,-20.95604 -12.88124,-32.68374 -12.68898,-11.91996 -30.37666,-11.91996 z"
     id="text1"
     aria-label="S3" /><path
     style="fill:#ffffff;fill-opacity:1;stroke:#ffffff;stroke-opacity:1;stroke-width:5.80000105;stroke-dasharray:none"
     d="m 200.16173,552.78105 c -6.02142,-2.00726 -12.93315,-8.02117 -15.56314,-13.54151 -2.33785,-4.90716 -2.73452,-7.69446 -10.13833,-71.23874 -1.66616,-14.3 -3.69106,-31.4 -4.49978,-38 -0.80873,-6.6 -2.00691,-16.67816 -2.66262,-22.39592 -1.11245,-9.70039 -1.39717,-10.57013 -4.25563,-13 -33.11121,-28.14646 -52.61557,-67.47825 -53.83295,-108.55762 -0.34756,-11.72802 7.2117,-19.54646 18.89849,-19.54646 5.34272,0 5.34272,0 5.34272,-6.35212 0,-6.98161 2.01386,-11.12188 7.32333,-15.05593 4.46403,-3.30763 314.88931,-3.30763 319.35334,0 5.30947,3.93405 7.32333,8.07432 7.32333,15.05593 0,6.35212 0,6.35212 5.25,6.37408 38.41539,0.1607 14.85831,86.82536 -34.82758,128.1279 -2.8825,2.39615 -3.15314,3.21725 -4.26979,12.95422 -0.65571,5.71776 -1.85389,15.79592 -2.66262,22.39592 -0.80872,6.6 -2.83362,23.7 -4.49978,38 -7.34176,63.01175 -7.7802,66.07499 -10.19167,71.20516 -2.69823,5.74024 -9.47868,11.56475 -15.86319,13.62672 -7.69215,2.48428 -192.75998,2.43656 -200.22413,-0.0516 z m 196.38954,-9.41631 c 3.93564,-1.31535 8.48151,-5.223 10.44351,-8.97729 1.46525,-2.80377 2.7264,-11.65006 7.46832,-52.38665 2.86784,-24.63678 3.7939,-32.3947 7.50524,-62.87394 1.9062,-15.65461 2.90007,-14.8554 -10.26374,-8.2535 -11.92719,5.98171 -26.47711,11.36622 -38.25411,14.15676 -8.66439,2.05301 -9.56362,2.5903 -10.47974,6.2617 -3.19417,12.80074 -5.12643,13.20898 -62.52026,13.20898 -57.39383,0 -59.32609,-0.40824 -62.52026,-13.20898 -0.91612,-3.6714 -1.81535,-4.20869 -10.47974,-6.2617 -11.777,-2.79054 -26.32692,-8.17505 -38.25411,-14.15676 -13.16381,-6.6019 -12.16994,-7.40111 -10.26374,8.2535 4.65243,38.20793 7.27636,60.27396 10.50877,88.37394 3.24169,28.18072 4.98923,32.49263 14.50908,35.79989 4.40464,1.5302 188.03119,1.59126 192.60078,0.064 z M 350.25509,432.01176 c 5.33367,-4.48799 4.46305,-12.76983 -1.67616,-15.94454 -4.55536,-2.35567 -91.70152,-2.35567 -96.25688,0 -6.13921,3.17471 -7.00983,11.45655 -1.67616,15.94454 4.66086,3.92186 94.94834,3.92186 99.6092,0 z M 240.11906,413.48472 c 5.07681,-8.59435 4.29151,-8.48392 60.33143,-8.48392 56.03992,0 55.25462,-0.11043 60.33143,8.48392 2.46764,4.17738 5.43637,3.85654 24.66857,-2.66594 24.18575,-8.20245 39.60601,-17.81692 40.42985,-25.20785 0.34393,-3.08557 1.28304,-11.01013 2.08691,-17.61013 4.60594,-37.81639 7.48324,-62.81033 7.48324,-65.00383 0,-2.49618 0,-2.49618 -135,-2.49618 -135,0 -135,0 -135,2.49618 0,2.1935 2.8773,27.18744 7.48324,65.00383 0.80387,6.6 1.74298,14.52456 2.08691,17.61013 0.98324,8.82092 20.97798,19.71143 54.42985,29.64624 6.40836,1.9032 8.72463,1.51838 10.66857,-1.77245 z M 163.24474,373.2508 c -0.46384,-3.9875 -1.49772,-12.65 -2.29752,-19.25 -0.7998,-6.6 -2.36343,-19.875 -3.47475,-29.5 -3.03268,-26.26581 -2.11476,-23.67712 -8.58588,-24.21375 -9.57835,-0.79431 -14.66191,-6.26326 -15.4361,-16.60632 -0.5,-6.67993 -0.5,-6.67993 -4.73852,-6.98687 -9.77445,-0.70782 -11.49231,8.31118 -6.15161,32.29682 5.7932,26.01783 17.38683,48.27519 33.91871,65.11688 7.80174,7.94794 7.79004,7.94942 6.76567,-0.85676 z m 282.40541,-0.56356 c 20.64065,-21.60432 35.56032,-57.88502 35.76946,-86.98189 0.0825,-11.47591 -13.11847,-13.38919 -13.96912,-2.02462 -0.77419,10.34306 -5.85775,15.81201 -15.4361,16.60632 -6.47112,0.53663 -5.5532,-2.05206 -8.58588,24.21375 -1.11132,9.625 -2.67495,22.9 -3.47475,29.5 -2.87128,23.69406 -3.1312,26.5 -2.45475,26.5 0.37736,0 4.04538,-3.5161 8.15114,-7.81356 z m 9.80034,-84.18644 c 3.52194,-3.52194 3.00659,-31.06306 -0.63486,-33.92742 -4.16624,-3.27716 -304.56404,-3.27716 -308.73028,0 -3.64145,2.86436 -4.1568,30.40548 -0.63486,33.92742 3.15472,3.15472 306.84528,3.15472 310,0 z"
     id="path1" /></svg>
